<svg width="24" height="24" viewBox="0 0 24 24" fill="none" xmlns="http://www.w3.org/2000/svg">
<g clip-path="url(#clip0_15653_1631)">
<path d="M23.3281 8.7026L15.9868 7.63586L12.7035 0.98341C12.4164 0.401504 11.5838 0.401223 11.2965 0.98341L8.01333 7.63586L0.672001 8.7026C0.0299537 8.79593 -0.227906 9.58755 0.237188 10.0408L5.54939 15.219L4.2953 22.5307C4.24477 22.8251 4.36575 23.1225 4.60744 23.2981C4.84903 23.4736 5.16928 23.4967 5.43366 23.3577L12 19.9057C19.1487 23.6639 18.6577 23.4479 18.9314 23.4479C19.4149 23.4479 19.7873 23.012 19.7047 22.5307L18.4507 15.219L23.7629 10.0408C24.2275 9.58788 23.9707 8.79602 23.3281 8.7026Z" fill="#F7AC16"/>
<path d="M12 0.546875C11.7008 0.546875 11.4284 0.716984 11.2964 0.984219L8.01328 7.63667L0.672001 8.70341C0.0299537 8.79673 -0.227906 9.58836 0.237188 10.0416L5.54939 15.2198L4.2953 22.5315C4.24477 22.8259 4.36575 23.1233 4.60744 23.2989C4.84903 23.4744 5.16928 23.4975 5.43366 23.3585L12 19.9065H12V0.546875Z" fill="#F2D422"/>
<path d="M0.672001 8.7035C0.0299537 8.79683 -0.227906 9.58845 0.237188 10.0417L5.54939 15.2199L4.2953 22.5316C4.24477 22.826 4.36575 23.1234 4.60744 23.299C4.84903 23.4745 5.16928 23.4976 5.43366 23.3586L12 19.9066C19.1487 23.6648 18.6577 23.4488 18.9314 23.4488C19.094 23.4488 19.2559 23.3982 19.3926 23.299L8.01328 7.63672L0.672001 8.7035Z" fill="#F7AC16"/>
<path d="M8.36991 14.3196C2.67956 8.7728 2.92416 9.07008 2.8478 8.78241C2.81672 8.66686 2.81034 8.53242 2.84414 8.39062L0.672001 8.70623C0.0299537 8.79956 -0.227906 9.59119 0.237188 10.0445L5.54939 15.2227L4.2953 22.5344C4.24477 22.8287 4.36575 23.1262 4.60744 23.3018C4.84903 23.4773 5.16928 23.5004 5.43366 23.3614L7.3643 22.3464C7.16569 22.1676 7.06997 21.8983 7.11581 21.6312L8.36991 14.3196Z" fill="#F48B19"/>
<path d="M0.237227 10.0426L5.54943 15.2208L4.29534 22.5324C4.2448 22.8268 4.36579 23.1242 4.60748 23.2998C4.84907 23.4753 5.16932 23.4985 5.4337 23.3595L12 19.9075C19.1488 23.6657 18.6577 23.4497 18.9314 23.4497C19.415 23.4497 19.7873 23.0137 19.7047 22.5324L18.4507 15.2208L0.0386172 9.23828C-0.0531172 9.56711 0.038711 9.84916 0.237227 10.0426Z" fill="#F2D422"/>
<path d="M0.237227 10.0426L5.54943 15.2208L4.29534 22.5324C4.2448 22.8268 4.36579 23.1242 4.60748 23.2998C4.84907 23.4753 5.16932 23.4985 5.4337 23.3595L7.36434 22.3445C7.16573 22.1656 7.07001 21.8964 7.11585 21.6293L8.36995 14.3176L4.71941 10.7592L0.0386172 9.23828C-0.0531172 9.56711 0.038711 9.84916 0.237227 10.0426Z" fill="#EFB616"/>
<path d="M4.29527 22.5324C4.24474 22.8267 4.36572 23.1242 4.60741 23.2997C4.849 23.4753 5.16925 23.4984 5.43363 23.3594L12 19.9074C19.1487 23.6656 18.6577 23.4496 18.9313 23.4496C19.4149 23.4496 19.7872 23.0137 19.7047 22.5324L18.4506 15.2207L23.7629 10.0425C23.9767 9.83406 24.0536 9.52225 23.9614 9.23828L5.54936 15.2207L4.29527 22.5324Z" fill="#F7AC16"/>
<path d="M4.29551 22.5334C4.24498 22.8278 4.36597 23.1252 4.60765 23.3008C4.84925 23.4763 5.1695 23.4994 5.43387 23.3604L7.36451 22.3455C7.1659 22.1666 7.07018 21.8973 7.11603 21.6302L8.37012 14.3186L8.35986 14.3086L5.54961 15.2217L4.29551 22.5334Z" fill="#F48B19"/>
<path d="M5.43369 23.3586L12 19.9066C19.1487 23.6648 18.6577 23.4488 18.9313 23.4488C19.4149 23.4488 19.7872 23.0128 19.7047 22.5315L18.4506 15.2199L23.7629 10.0417C24.2274 9.58873 23.9706 8.79688 23.328 8.70345L15.9867 7.63672L4.60742 23.2989C4.84902 23.4744 5.16927 23.4976 5.43369 23.3586Z" fill="#F2D422"/>
<path d="M23.9615 9.23828L12 13.1248L4.60742 23.2998C4.84902 23.4753 5.16927 23.4985 5.43364 23.3595L12 19.9075C19.1487 23.6657 18.6577 23.4497 18.9313 23.4497C19.4149 23.4497 19.7872 23.0137 19.7047 22.5324L18.4506 15.2208L23.7629 10.0426C23.9767 9.83406 24.0537 9.5223 23.9615 9.23828Z" fill="#F7AC16"/>
<path d="M18.4507 15.221L12 13.125L4.60742 23.3C4.84902 23.4755 5.16927 23.4987 5.43364 23.3597L12 19.9077C19.1487 23.6659 18.6577 23.4499 18.9313 23.4499C19.4149 23.4499 19.7872 23.0139 19.7047 22.5326L18.4507 15.221Z" fill="#F2D422"/>
<path d="M4.60742 23.3C4.84902 23.4755 5.16927 23.4987 5.43364 23.3597L12 19.9077C19.1487 23.6659 18.6577 23.4499 18.9313 23.4499C19.094 23.4499 19.2559 23.3993 19.3925 23.3L12 13.125L4.60742 23.3Z" fill="#F7AC16"/>
<path d="M12 13.1251L12 13.125L4.60742 23.3C4.84902 23.4755 5.16927 23.4987 5.43364 23.3597L12 19.9077H12V13.1251Z" fill="#F2D422"/>
<path d="M7.51588 19.2969L4.60742 23.3C4.84902 23.4755 5.16927 23.4987 5.43364 23.3597L7.36428 22.3447C7.16567 22.1658 7.06995 21.8966 7.1158 21.6295L7.51588 19.2969Z" fill="#EFB616"/>
</g>
<defs>
<clipPath id="clip0_15653_1631">
<rect width="24" height="24" fill="white"/>
</clipPath>
</defs>
</svg>
